Coordinates
version=1
nRows=8
nColumns=36
inDegrees=yes

Units are S.I. units (second, meters, Newtons, ...)
If the header above contains a line with 'inDegrees', this indicates whether rotational values are in degrees (yes) or radians (no).

endheader
time	pelvis_tilt	pelvis_list	pelvis_rotation	pelvis_tx	pelvis_ty	pelvis_tz	hip_flexion_r	hip_adduction_r	hip_rotation_r	knee_angle_r	knee_angle_r_beta	ankle_angle_r	subtalar_angle_r	mtp_angle_r	hip_flexion_l	hip_adduction_l	hip_rotation_l	knee_angle_l	knee_angle_l_beta	ankle_angle_l	subtalar_angle_l	mtp_angle_l	lumbar_extension	lumbar_bending	lumbar_rotation	arm_flex_r	arm_add_r	arm_rot_r	elbow_flex_r	pro_sup_r	arm_flex_l	arm_add_l	arm_rot_l	elbow_flex_l	pro_sup_l
      1.48333330	    -15.75426591	     -0.87223429	      4.34801337	     -0.95901122	      1.24858604	     -0.07377399	     32.98582105	     -3.20025045	     -3.83802702	     42.74535683	      0.74604722	     13.84641961	    -27.71982054	     -7.49999987	     34.29434990	      2.87275372	     13.26788347	     44.80641314	      0.78201944	     21.90859754	    -12.02643821	     -7.49999987	    -10.98864332	      3.00338628	     -8.27877978	     12.43710489	     -8.67005439	      9.16691070	     96.82257299	     77.16628364	     18.45810262	    -16.72465830	     25.31381212	     76.11061442	     66.81642203
      1.48750000	    -16.20261044	     -0.73004138	      4.71685130	     -0.95907601	      1.24415342	     -0.07347738	     34.01900083	     -3.59587679	     -3.89151664	     43.62443357	      0.76139000	     14.47113221	    -27.19662217	     -7.49999987	     35.12695554	      3.36609037	     13.56475253	     45.25463282	      0.78984234	     22.10843934	    -11.39946238	     -7.49999987	    -11.41421044	      3.15882741	     -8.29963062	     12.35007166	     -8.42102930	      8.99001839	     95.81571357	     75.54166288	     18.79393208	    -16.60709016	     24.94937486	     76.83802204	     66.31033312
      1.49166670	    -16.24062973	     -0.49110892	      4.97003824	     -0.95898769	      1.23980410	     -0.07376159	     34.82345435	     -3.96290521	     -3.74825318	     45.12019184	      0.78749591	     14.84725478	    -27.45532423	     -7.49999987	     35.39901805	      3.79401335	     13.73999610	     45.80790150	      0.79949870	     22.52633541	    -10.70153641	     -7.49999987	    -12.54361558	      3.27451021	     -8.05699974	     12.28445678	     -8.22439844	      8.43093981	     94.65413734	     74.75455171	     19.08855792	    -16.36913606	     24.87853085	     78.47605177	     66.27002960
      1.49583330	    -16.69334674	     -0.27766244	      5.09167689	     -0.95886386	      1.23832109	     -0.07329060	     35.94768441	     -4.23600169	     -3.47158268	     46.36981688	      0.80930598	     15.33332365	    -27.62768838	     -7.49999987	     36.24984944	      4.19306972	     13.98814496	     46.51364986	      0.81181634	     22.62332712	    -10.37975781	     -7.49999987	    -12.91821492	      3.39648263	     -7.65552106	     12.44688029	     -8.05566319	      8.55946752	     93.25919712	     73.81667867	     19.88391092	    -16.11192012	     24.78007001	     78.71873652	     65.89774854
      1.50000000	    -16.36483144	     -0.00670250	      5.36257992	     -0.95206681	      1.23107855	     -0.06944407	     36.04246374	     -4.38385075	     -3.25040695	     47.91607373	      0.83629325	     16.25965909	    -27.81009043	     -7.49999987	     35.97736190	      4.47903963	     14.17635805	     47.31181586	      0.82574696	     23.33733527	     -9.90121754	     -7.49999987	    -14.17583620	      3.40563700	     -7.88144054	     12.47577222	     -7.60808648	      8.61220148	     92.84342087	     79.46657787	     19.73014371	    -16.54784902	     24.74623974	     80.35843639	     70.36093977
      1.50416670	    -16.47525215	      0.31503396	      5.60044808	     -0.95212913	      1.23044173	     -0.06935774	     36.37607836	     -4.50763276	     -2.85028760	     49.15115631	      0.85784951	     16.66215373	    -28.73743553	     -7.49999987	     36.18395764	      4.81940904	     14.39755837	     47.79275564	      0.83414094	     23.52883007	     -9.68146736	     -7.49999987	    -14.65706693	      3.29086718	     -7.84898635	     11.59183955	     -6.94762257	      9.27040077	     92.42759340	     78.54561783	     19.77410721	    -16.80655866	     25.27797951	     80.71327772	     69.85547935
      1.50833330	    -16.44980772	      0.64261480	      5.80240811	     -0.95214197	      1.22365035	     -0.06915488	     36.86386365	     -4.64420868	     -2.31918724	     50.54392650	      0.88215793	     17.46629655	    -29.27381593	     -7.49999987	     36.62392861	      5.12353072	     14.24370909	     48.69736764	      0.84992940	     23.92562865	     -9.09623891	     -7.49999987	    -15.16675479	      3.17545382	     -7.98083420	     11.34486398	     -6.51075560	     10.14648199	     91.66187774	     77.27645775	     20.44073851	    -17.33742467	     26.03607488	     80.83845841	     69.24622005
      1.51250000	    -16.72566701	      0.87042625	      6.04440854	     -0.95285293	      1.21589220	     -0.06914129	     37.71215556	     -4.84008839	     -1.97062288	     52.02071057	      0.90793268	     18.19281060	    -30.11253432	     -7.49999987	     37.44151640	      5.37571309	     13.85942487	     49.69978103	      0.86742482	     24.52197825	     -8.32624770	     -7.49999987	    -15.33020699	      3.14482562	     -8.04698502	     11.53768862	     -5.95776089	     10.80632925	     89.83246943	     76.46638901	     21.46047440	    -18.07145665	     26.86045603	     80.97010809	     68.92435212
